<svg xmlns="http://www.w3.org/2000/svg" width="1442" height="883" viewBox="0 0 1442 883">
    <defs>
        <linearGradient id="prefix__a" x1="0%" x2="102%" y1="41.348%" y2="58.825%">
            <stop offset="0%" stop-color="#3023AE"/>
            <stop offset="100%" stop-color="#C86DD7"/>
        </linearGradient>
        <linearGradient id="prefix__b" x1="108.555%" x2="-4.733%" y1="48.347%" y2="56.089%">
            <stop offset="0%" stop-color="#FF8F0F" stop-opacity="0"/>
            <stop offset="100%" stop-color="#FF8F0F"/>
        </linearGradient>
    </defs>
    <g fill="none" fill-rule="evenodd">
        <path d="M0 0H1441V883H0z" transform="translate(.56)"/>
        <path fill="url(#prefix__a)" d="M1440.44 0v225.339l-.286-.001-1.531 2.382c-25.481 39.507-52.82 77.19-82.015 113.05-166.078 203.987-477.94 274.657-644.622 255.105-166.682-19.553-204.397-145.388-422.128-81.262C178.835 547.312 61.123 575.372.763 547.012c-.49-.23-.423-107.603.2-322.117l178.87-.001-178.87-.063V0H1440.44z" opacity=".111" transform="translate(.56)"/>
        <path fill="url(#prefix__b)" d="M160.508 50.989c1.929 0 3.492 1.57 3.492 3.506 0 1.936-1.563 3.505-3.492 3.505s-3.492-1.57-3.492-3.505c0-1.937 1.563-3.506 3.492-3.506zm-10.159 0c1.929 0 3.492 1.57 3.492 3.506 0 1.936-1.563 3.505-3.492 3.505-1.928 0-3.492-1.57-3.492-3.505 0-1.937 1.564-3.506 3.492-3.506zm-62.857 0c1.929 0 3.492 1.57 3.492 3.506 0 1.936-1.563 3.505-3.492 3.505S84 56.43 84 54.495c0-1.937 1.563-3.506 3.492-3.506zm52.064 0c1.928 0 3.492 1.57 3.492 3.506 0 1.936-1.564 3.505-3.492 3.505-1.93 0-3.493-1.57-3.493-3.505 0-1.937 1.564-3.506 3.493-3.506zm-10.16 0c1.93 0 3.493 1.57 3.493 3.506 0 1.936-1.564 3.505-3.492 3.505-1.929 0-3.492-1.57-3.492-3.505 0-1.937 1.563-3.506 3.492-3.506zm-31.745 0c1.928 0 3.492 1.57 3.492 3.506 0 1.936-1.564 3.505-3.492 3.505-1.929 0-3.492-1.57-3.492-3.505 0-1.937 1.563-3.506 3.492-3.506zm20.952 0c1.929 0 3.492 1.57 3.492 3.506 0 1.936-1.563 3.505-3.492 3.505-1.928 0-3.492-1.57-3.492-3.505 0-1.937 1.564-3.506 3.492-3.506zm-10.159 0c1.93 0 3.493 1.57 3.493 3.506 0 1.936-1.564 3.505-3.493 3.505-1.928 0-3.492-1.57-3.492-3.505 0-1.937 1.564-3.506 3.492-3.506zm-84 0c1.93 0 3.493 1.57 3.493 3.506 0 1.936-1.564 3.505-3.493 3.505-1.928 0-3.492-1.57-3.492-3.505 0-1.937 1.564-3.506 3.492-3.506zm10.16 0c1.928 0 3.491 1.57 3.491 3.506 0 1.936-1.563 3.505-3.492 3.505-1.928 0-3.492-1.57-3.492-3.505 0-1.937 1.564-3.506 3.492-3.506zm-20.953 0c1.928 0 3.492 1.57 3.492 3.506 0 1.936-1.564 3.505-3.492 3.505-1.929 0-3.492-1.57-3.492-3.505 0-1.937 1.563-3.506 3.492-3.506zm31.746 0c1.928 0 3.492 1.57 3.492 3.506 0 1.936-1.564 3.505-3.492 3.505-1.929 0-3.492-1.57-3.492-3.505 0-1.937 1.563-3.506 3.492-3.506zm10.159 0c1.928 0 3.492 1.57 3.492 3.506 0 1.936-1.564 3.505-3.492 3.505-1.93 0-3.493-1.57-3.493-3.505 0-1.937 1.564-3.506 3.493-3.506zm-52.064 0c1.929 0 3.492 1.57 3.492 3.506C6.984 56.43 5.421 58 3.492 58S0 56.43 0 54.495c0-1.937 1.563-3.506 3.492-3.506zm62.857 0c1.929 0 3.492 1.57 3.492 3.506 0 1.936-1.563 3.505-3.492 3.505-1.928 0-3.492-1.57-3.492-3.505 0-1.937 1.564-3.506 3.492-3.506zm10.159 0c1.929 0 3.492 1.57 3.492 3.506C80 56.43 78.437 58 76.508 58s-3.492-1.57-3.492-3.505c0-1.937 1.563-3.506 3.492-3.506zm0-10.198c1.929 0 3.492 1.57 3.492 3.506 0 1.936-1.563 3.505-3.492 3.505s-3.492-1.57-3.492-3.505c0-1.936 1.563-3.506 3.492-3.506zm-52.064 0c1.93 0 3.493 1.57 3.493 3.506 0 1.936-1.564 3.505-3.493 3.505-1.928 0-3.492-1.57-3.492-3.505 0-1.936 1.564-3.506 3.492-3.506zm10.16 0c1.928 0 3.491 1.57 3.491 3.506 0 1.936-1.563 3.505-3.492 3.505-1.928 0-3.492-1.57-3.492-3.505 0-1.936 1.564-3.506 3.492-3.506zm-20.953 0c1.928 0 3.492 1.57 3.492 3.506 0 1.936-1.564 3.505-3.492 3.505-1.929 0-3.492-1.57-3.492-3.505 0-1.936 1.563-3.506 3.492-3.506zm31.746 0c1.928 0 3.492 1.57 3.492 3.506 0 1.936-1.564 3.505-3.492 3.505-1.929 0-3.492-1.57-3.492-3.505 0-1.936 1.563-3.506 3.492-3.506zm10.159 0c1.928 0 3.492 1.57 3.492 3.506 0 1.936-1.564 3.505-3.492 3.505-1.93 0-3.493-1.57-3.493-3.505 0-1.936 1.564-3.506 3.493-3.506zm-52.064 0c1.929 0 3.492 1.57 3.492 3.506 0 1.936-1.563 3.505-3.492 3.505S0 46.232 0 44.297c0-1.936 1.563-3.506 3.492-3.506zm62.857 0c1.929 0 3.492 1.57 3.492 3.506 0 1.936-1.563 3.505-3.492 3.505-1.928 0-3.492-1.57-3.492-3.505 0-1.936 1.564-3.506 3.492-3.506zm94.159 0c1.929 0 3.492 1.57 3.492 3.506 0 1.936-1.563 3.505-3.492 3.505s-3.492-1.57-3.492-3.505c0-1.936 1.563-3.506 3.492-3.506zm-10.159 0c1.929 0 3.492 1.57 3.492 3.506 0 1.936-1.563 3.505-3.492 3.505-1.928 0-3.492-1.57-3.492-3.505 0-1.936 1.564-3.506 3.492-3.506zm-62.857 0c1.929 0 3.492 1.57 3.492 3.506 0 1.936-1.563 3.505-3.492 3.505S84 46.232 84 44.297c0-1.936 1.563-3.506 3.492-3.506zm52.064 0c1.928 0 3.492 1.57 3.492 3.506 0 1.936-1.564 3.505-3.492 3.505-1.93 0-3.493-1.57-3.493-3.505 0-1.936 1.564-3.506 3.493-3.506zm-10.16 0c1.93 0 3.493 1.57 3.493 3.506 0 1.936-1.564 3.505-3.492 3.505-1.929 0-3.492-1.57-3.492-3.505 0-1.936 1.563-3.506 3.492-3.506zm-31.745 0c1.928 0 3.492 1.57 3.492 3.506 0 1.936-1.564 3.505-3.492 3.505-1.929 0-3.492-1.57-3.492-3.505 0-1.936 1.563-3.506 3.492-3.506zm20.952 0c1.929 0 3.492 1.57 3.492 3.506 0 1.936-1.563 3.505-3.492 3.505-1.928 0-3.492-1.57-3.492-3.505 0-1.936 1.564-3.506 3.492-3.506zm-10.159 0c1.93 0 3.493 1.57 3.493 3.506 0 1.936-1.564 3.505-3.493 3.505-1.928 0-3.492-1.57-3.492-3.505 0-1.936 1.564-3.506 3.492-3.506zm0-10.198c1.93 0 3.493 1.57 3.493 3.506 0 1.936-1.564 3.505-3.493 3.505-1.928 0-3.492-1.57-3.492-3.505 0-1.936 1.564-3.506 3.492-3.506zm-84 0c1.93 0 3.493 1.57 3.493 3.506 0 1.936-1.564 3.505-3.493 3.505-1.928 0-3.492-1.57-3.492-3.505 0-1.936 1.564-3.506 3.492-3.506zm94.16 0c1.928 0 3.491 1.57 3.491 3.506 0 1.936-1.563 3.505-3.492 3.505-1.928 0-3.492-1.57-3.492-3.505 0-1.936 1.564-3.506 3.492-3.506zm-31.112 0c1.929 0 3.492 1.57 3.492 3.506 0 1.936-1.563 3.505-3.492 3.505S84 36.034 84 34.1c0-1.936 1.563-3.506 3.492-3.506zm41.905 0c1.928 0 3.492 1.57 3.492 3.506 0 1.936-1.564 3.505-3.492 3.505-1.929 0-3.492-1.57-3.492-3.505 0-1.936 1.563-3.506 3.492-3.506zm20.952 0c1.929 0 3.492 1.57 3.492 3.506 0 1.936-1.563 3.505-3.492 3.505-1.928 0-3.492-1.57-3.492-3.505 0-1.936 1.564-3.506 3.492-3.506zm-52.698 0c1.928 0 3.492 1.57 3.492 3.506 0 1.936-1.564 3.505-3.492 3.505-1.929 0-3.492-1.57-3.492-3.505 0-1.936 1.563-3.506 3.492-3.506zm41.905 0c1.928 0 3.492 1.57 3.492 3.506 0 1.936-1.564 3.505-3.492 3.505-1.93 0-3.493-1.57-3.493-3.505 0-1.936 1.564-3.506 3.493-3.506zm-63.048 0c1.929 0 3.492 1.57 3.492 3.506 0 1.936-1.563 3.505-3.492 3.505s-3.492-1.57-3.492-3.505c0-1.936 1.563-3.506 3.492-3.506zm84 0c1.929 0 3.492 1.57 3.492 3.506 0 1.936-1.563 3.505-3.492 3.505s-3.492-1.57-3.492-3.505c0-1.936 1.563-3.506 3.492-3.506zm-104.952 0c1.928 0 3.492 1.57 3.492 3.506 0 1.936-1.564 3.505-3.492 3.505-1.93 0-3.493-1.57-3.493-3.505 0-1.936 1.564-3.506 3.493-3.506zm-41.905 0c1.928 0 3.492 1.57 3.492 3.506 0 1.936-1.564 3.505-3.492 3.505-1.929 0-3.492-1.57-3.492-3.505 0-1.936 1.563-3.506 3.492-3.506zm52.698 0c1.929 0 3.492 1.57 3.492 3.506 0 1.936-1.563 3.505-3.492 3.505-1.928 0-3.492-1.57-3.492-3.505 0-1.936 1.564-3.506 3.492-3.506zm-20.952 0c1.928 0 3.492 1.57 3.492 3.506 0 1.936-1.564 3.505-3.492 3.505-1.929 0-3.492-1.57-3.492-3.505 0-1.936 1.563-3.506 3.492-3.506zm-41.905 0c1.929 0 3.492 1.57 3.492 3.506 0 1.936-1.563 3.505-3.492 3.505S0 36.034 0 34.1c0-1.936 1.563-3.506 3.492-3.506zm31.111 0c1.929 0 3.492 1.57 3.492 3.506 0 1.936-1.563 3.505-3.492 3.505-1.928 0-3.492-1.57-3.492-3.505 0-1.936 1.564-3.506 3.492-3.506zM24.444 20.396c1.93 0 3.493 1.57 3.493 3.505 0 1.936-1.564 3.506-3.493 3.506-1.928 0-3.492-1.57-3.492-3.506 0-1.936 1.564-3.505 3.492-3.505zm73.207 0c1.928 0 3.492 1.57 3.492 3.505 0 1.936-1.564 3.506-3.492 3.506-1.929 0-3.492-1.57-3.492-3.506 0-1.936 1.563-3.505 3.492-3.505zm52.698 0c1.929 0 3.492 1.57 3.492 3.505 0 1.936-1.563 3.506-3.492 3.506-1.928 0-3.492-1.57-3.492-3.506 0-1.936 1.564-3.505 3.492-3.505zm-20.952 0c1.928 0 3.492 1.57 3.492 3.505 0 1.936-1.564 3.506-3.492 3.506-1.929 0-3.492-1.57-3.492-3.506 0-1.936 1.563-3.505 3.492-3.505zm-41.905 0c1.929 0 3.492 1.57 3.492 3.505 0 1.936-1.563 3.506-3.492 3.506S84 25.837 84 23.9c0-1.936 1.563-3.505 3.492-3.505zm31.111 0c1.929 0 3.492 1.57 3.492 3.505 0 1.936-1.563 3.506-3.492 3.506-1.928 0-3.492-1.57-3.492-3.506 0-1.936 1.564-3.505 3.492-3.505zm41.905 0c1.929 0 3.492 1.57 3.492 3.505 0 1.936-1.563 3.506-3.492 3.506s-3.492-1.57-3.492-3.506c0-1.936 1.563-3.505 3.492-3.505zm-52.064 0c1.93 0 3.493 1.57 3.493 3.505 0 1.936-1.564 3.506-3.493 3.506-1.928 0-3.492-1.57-3.492-3.506 0-1.936 1.564-3.505 3.492-3.505zm-31.936 0c1.929 0 3.492 1.57 3.492 3.505 0 1.936-1.563 3.506-3.492 3.506s-3.492-1.57-3.492-3.506c0-1.936 1.563-3.505 3.492-3.505zm-41.905 0c1.929 0 3.492 1.57 3.492 3.505 0 1.936-1.563 3.506-3.492 3.506-1.928 0-3.492-1.57-3.492-3.506 0-1.936 1.564-3.505 3.492-3.505zm-31.11 0c1.928 0 3.491 1.57 3.491 3.505 0 1.936-1.563 3.506-3.492 3.506S0 25.837 0 23.9c0-1.936 1.563-3.505 3.492-3.505zm41.904 0c1.928 0 3.492 1.57 3.492 3.505 0 1.936-1.564 3.506-3.492 3.506-1.929 0-3.492-1.57-3.492-3.506 0-1.936 1.563-3.505 3.492-3.505zm20.952 0c1.929 0 3.492 1.57 3.492 3.505 0 1.936-1.563 3.506-3.492 3.506-1.928 0-3.492-1.57-3.492-3.506 0-1.936 1.564-3.505 3.492-3.505zm-52.698 0c1.928 0 3.492 1.57 3.492 3.505 0 1.936-1.564 3.506-3.492 3.506-1.929 0-3.492-1.57-3.492-3.506 0-1.936 1.563-3.505 3.492-3.505zm41.905 0c1.928 0 3.492 1.57 3.492 3.505 0 1.936-1.564 3.506-3.492 3.506-1.93 0-3.493-1.57-3.493-3.506 0-1.936 1.564-3.505 3.493-3.505zm84 0c1.928 0 3.492 1.57 3.492 3.505 0 1.936-1.564 3.506-3.492 3.506-1.93 0-3.493-1.57-3.493-3.506 0-1.936 1.564-3.505 3.493-3.505zM97.65 10.198c1.928 0 3.492 1.57 3.492 3.505 0 1.936-1.564 3.506-3.492 3.506-1.929 0-3.492-1.57-3.492-3.506 0-1.936 1.563-3.505 3.492-3.505zm41.905 0c1.928 0 3.492 1.57 3.492 3.505 0 1.936-1.564 3.506-3.492 3.506-1.93 0-3.493-1.57-3.493-3.506 0-1.936 1.564-3.505 3.493-3.505zm-136.064 0c1.929 0 3.492 1.57 3.492 3.505 0 1.936-1.563 3.506-3.492 3.506S0 15.639 0 13.703c0-1.936 1.563-3.505 3.492-3.505zm31.111 0c1.929 0 3.492 1.57 3.492 3.505 0 1.936-1.563 3.506-3.492 3.506-1.928 0-3.492-1.57-3.492-3.506 0-1.936 1.564-3.505 3.492-3.505zm41.905 0c1.929 0 3.492 1.57 3.492 3.505 0 1.936-1.563 3.506-3.492 3.506s-3.492-1.57-3.492-3.506c0-1.936 1.563-3.505 3.492-3.505zm-52.064 0c1.93 0 3.493 1.57 3.493 3.505 0 1.936-1.564 3.506-3.493 3.506-1.928 0-3.492-1.57-3.492-3.506 0-1.936 1.564-3.505 3.492-3.505zm20.953 0c1.928 0 3.492 1.57 3.492 3.505 0 1.936-1.564 3.506-3.492 3.506-1.929 0-3.492-1.57-3.492-3.506 0-1.936 1.563-3.505 3.492-3.505zm20.952 0c1.929 0 3.492 1.57 3.492 3.505 0 1.936-1.563 3.506-3.492 3.506-1.928 0-3.492-1.57-3.492-3.506 0-1.936 1.564-3.505 3.492-3.505zm-52.698 0c1.928 0 3.492 1.57 3.492 3.505 0 1.936-1.564 3.506-3.492 3.506-1.929 0-3.492-1.57-3.492-3.506 0-1.936 1.563-3.505 3.492-3.505zm41.905 0c1.928 0 3.492 1.57 3.492 3.505 0 1.936-1.564 3.506-3.492 3.506-1.93 0-3.493-1.57-3.493-3.506 0-1.936 1.564-3.505 3.493-3.505zm31.936 0c1.929 0 3.492 1.57 3.492 3.505 0 1.936-1.563 3.506-3.492 3.506S84 15.639 84 13.703c0-1.936 1.563-3.505 3.492-3.505zm31.111 0c1.929 0 3.492 1.57 3.492 3.505 0 1.936-1.563 3.506-3.492 3.506-1.928 0-3.492-1.57-3.492-3.506 0-1.936 1.564-3.505 3.492-3.505zm41.905 0c1.929 0 3.492 1.57 3.492 3.505 0 1.936-1.563 3.506-3.492 3.506s-3.492-1.57-3.492-3.506c0-1.936 1.563-3.505 3.492-3.505zm-52.064 0c1.93 0 3.493 1.57 3.493 3.505 0 1.936-1.564 3.506-3.493 3.506-1.928 0-3.492-1.57-3.492-3.506 0-1.936 1.564-3.505 3.492-3.505zm20.953 0c1.928 0 3.492 1.57 3.492 3.505 0 1.936-1.564 3.506-3.492 3.506-1.929 0-3.492-1.57-3.492-3.506 0-1.936 1.563-3.505 3.492-3.505zm20.952 0c1.929 0 3.492 1.57 3.492 3.505 0 1.936-1.563 3.506-3.492 3.506-1.928 0-3.492-1.57-3.492-3.506 0-1.936 1.564-3.505 3.492-3.505zM139.556 0c1.928 0 3.492 1.57 3.492 3.505 0 1.937-1.564 3.506-3.492 3.506-1.93 0-3.493-1.57-3.493-3.506 0-1.936 1.564-3.505 3.493-3.505zM97.65 0c1.928 0 3.492 1.57 3.492 3.505 0 1.937-1.564 3.506-3.492 3.506-1.929 0-3.492-1.57-3.492-3.506C94.159 1.57 95.722 0 97.65 0zm52.698 0c1.929 0 3.492 1.57 3.492 3.505 0 1.937-1.563 3.506-3.492 3.506-1.928 0-3.492-1.57-3.492-3.506 0-1.936 1.564-3.505 3.492-3.505zm-20.952 0c1.928 0 3.492 1.57 3.492 3.505 0 1.937-1.564 3.506-3.492 3.506-1.929 0-3.492-1.57-3.492-3.506 0-1.936 1.563-3.505 3.492-3.505zm-20.953 0c1.93 0 3.493 1.57 3.493 3.505 0 1.937-1.564 3.506-3.493 3.506-1.928 0-3.492-1.57-3.492-3.506 0-1.936 1.564-3.505 3.492-3.505zm52.064 0C162.437 0 164 1.57 164 3.505c0 1.937-1.563 3.506-3.492 3.506s-3.492-1.57-3.492-3.506c0-1.936 1.563-3.505 3.492-3.505zm-41.905 0c1.929 0 3.492 1.57 3.492 3.505 0 1.937-1.563 3.506-3.492 3.506-1.928 0-3.492-1.57-3.492-3.506 0-1.936 1.564-3.505 3.492-3.505zm-31.11 0c1.928 0 3.491 1.57 3.491 3.505 0 1.937-1.563 3.506-3.492 3.506S84 5.441 84 3.505C84 1.57 85.563 0 87.492 0zM55.555 0c1.928 0 3.492 1.57 3.492 3.505 0 1.937-1.564 3.506-3.492 3.506-1.93 0-3.493-1.57-3.493-3.506C52.063 1.57 53.627 0 55.556 0zM13.65 0c1.928 0 3.492 1.57 3.492 3.505 0 1.937-1.564 3.506-3.492 3.506-1.929 0-3.492-1.57-3.492-3.506C10.159 1.57 11.722 0 13.65 0zm52.698 0c1.929 0 3.492 1.57 3.492 3.505 0 1.937-1.563 3.506-3.492 3.506-1.928 0-3.492-1.57-3.492-3.506C62.857 1.57 64.421 0 66.35 0zM45.397 0c1.928 0 3.492 1.57 3.492 3.505 0 1.937-1.564 3.506-3.492 3.506-1.929 0-3.492-1.57-3.492-3.506C41.905 1.57 43.468 0 45.397 0zM24.444 0c1.93 0 3.493 1.57 3.493 3.505 0 1.937-1.564 3.506-3.493 3.506-1.928 0-3.492-1.57-3.492-3.506C20.952 1.57 22.516 0 24.444 0zm52.064 0C78.437 0 80 1.57 80 3.505c0 1.937-1.563 3.506-3.492 3.506s-3.492-1.57-3.492-3.506C73.016 1.57 74.579 0 76.508 0zM34.603 0c1.929 0 3.492 1.57 3.492 3.505 0 1.937-1.563 3.506-3.492 3.506-1.928 0-3.492-1.57-3.492-3.506C31.111 1.57 32.675 0 34.603 0zM3.493 0C5.42 0 6.983 1.57 6.983 3.505c0 1.937-1.563 3.506-3.492 3.506S0 5.441 0 3.505C0 1.57 1.563 0 3.492 0z" opacity=".68" transform="translate(.56) rotate(90 466.22 803.22)"/>
        <g stroke="#A56BE0" stroke-linecap="square">
            <path d="M.5 12.5L15.5 48.5M9.5 12.5L24.5 48.5M26.5 10.5L41.5 46.5M18.5 12.5L33.5 48.5M34.5 9.5L49.5 45.5M42.5 7.5L57.5 43.5M50.5 7.5L65.5 43.5M57.5 3.5L72.5 39.5M63.5.5L78.5 36.5M71.5.5L86.5 36.5" transform="translate(.56) rotate(-10 3035.964 -741.286)"/>
        </g>
    </g>
</svg>
