<svg width="53" height="53" viewBox="0 0 53 53" fill="none" xmlns="http://www.w3.org/2000/svg">
<path d="M5.79688 1.65625H38.9219V51.3438H5.79688V1.65625Z" fill="#E6E9ED"/>
<path d="M42.2344 34.7812V41.4062C42.2344 42.3172 41.8617 43.1453 41.2655 43.7498C40.6609 44.3461 39.8328 44.7188 38.9219 44.7188C37.0917 44.7188 35.6094 43.2364 35.6094 41.4062V34.7812C35.6094 33.8703 36.3547 33.125 37.2656 33.125H38.0938H39.75H40.5781C41.4891 33.125 42.2344 33.8703 42.2344 34.7812Z" fill="#969FAA"/>
<path d="M41.4062 29.564V31.4687C41.4062 32.3796 40.6609 33.1249 39.75 33.1249H38.0938C37.1828 33.1249 36.4375 32.3796 36.4375 31.4687V29.564C37.2408 29.7296 38.0689 29.8124 38.9219 29.8124C39.7748 29.8124 40.603 29.7296 41.4062 29.564Z" fill="#CCD1D9"/>
<path d="M38.9219 4.96875C45.7787 4.96875 51.3438 10.5338 51.3438 17.3906C51.3438 23.3945 47.0789 28.413 41.4062 29.5641C40.603 29.7297 39.7748 29.8125 38.9219 29.8125C38.0689 29.8125 37.2408 29.7297 36.4375 29.5641C30.7648 28.413 26.5 23.3945 26.5 17.3906C26.5 10.5338 32.065 4.96875 38.9219 4.96875V4.96875Z" fill="#FCD770"/>
<path d="M38.9219 26.5C43.9528 26.5 48.0312 22.4216 48.0312 17.3906C48.0312 12.3597 43.9528 8.28125 38.9219 8.28125C33.8909 8.28125 29.8125 12.3597 29.8125 17.3906C29.8125 22.4216 33.8909 26.5 38.9219 26.5Z" fill="#69D6F4"/>
<path d="M28.1562 32.2969V37.2656L26.0528 37.9364C25.8044 38.8142 25.4566 39.6506 25.0259 40.4373L26.0363 42.3917L22.5167 45.903L20.5623 44.9009C19.7756 45.3316 18.9392 45.6794 18.0614 45.9278L17.3906 48.0312H12.4219L11.7511 45.9278C10.8733 45.6794 10.0369 45.3316 9.25016 44.9009L7.29578 45.903L5.79688 44.4123L3.77625 42.3917L4.78656 40.4373C4.35594 39.6506 4.00812 38.8142 3.75969 37.9364L1.65625 37.2656V32.2969L3.75969 31.6261C4.00812 30.7483 4.35594 29.9119 4.78656 29.1252L3.77625 27.1708L5.79688 25.1502L7.29578 23.6512L9.25016 24.6616C10.0369 24.2309 10.8733 23.8831 11.7511 23.6347L12.4219 21.5312H17.3906L18.0614 23.6347C18.9392 23.8831 19.7756 24.2309 20.5623 24.6616L22.5167 23.6512L26.0363 27.1708L25.0259 29.1252C25.4566 29.9119 25.8044 30.7483 26.0528 31.6261L28.1562 32.2969Z" fill="#5CD6B3"/>
<path d="M9.10938 4.96875H24.0156V11.5938H9.10938V4.96875Z" fill="#FF826E"/>
<path d="M14.9062 43.0625C19.4799 43.0625 23.1875 39.3549 23.1875 34.7812C23.1875 30.2076 19.4799 26.5 14.9062 26.5C10.3326 26.5 6.625 30.2076 6.625 34.7812C6.625 39.3549 10.3326 43.0625 14.9062 43.0625Z" fill="#FFEAA7"/>
<path d="M14.9062 38.0938C16.7357 38.0938 18.2188 36.6107 18.2188 34.7812C18.2188 32.9518 16.7357 31.4688 14.9062 31.4688C13.0768 31.4688 11.5938 32.9518 11.5938 34.7812C11.5938 36.6107 13.0768 38.0938 14.9062 38.0938Z" fill="#FF826E"/>
<path d="M14.9062 43.8906C19.9288 43.8906 24.0156 39.8038 24.0156 34.7812C24.0156 29.7587 19.9288 25.6719 14.9062 25.6719C9.88367 25.6719 5.79688 29.7587 5.79688 34.7812C5.79688 39.8038 9.88367 43.8906 14.9062 43.8906ZM7.50198 35.6094H10.8493C11.1797 37.2292 12.4583 38.5078 14.0781 38.8382V42.1855C10.629 41.8021 7.88541 39.0585 7.50198 35.6094V35.6094ZM14.9062 32.2969C16.276 32.2969 17.3906 33.4115 17.3906 34.7812C17.3906 36.151 16.276 37.2656 14.9062 37.2656C13.5365 37.2656 12.4219 36.151 12.4219 34.7812C12.4219 33.4115 13.5365 32.2969 14.9062 32.2969ZM15.7344 42.1855V38.8382C17.3542 38.5078 18.6328 37.2292 18.9632 35.6094H22.3105C21.9271 39.0585 19.1835 41.8021 15.7344 42.1855V42.1855ZM22.3105 33.9531H18.9632C18.6328 32.3333 17.3542 31.0547 15.7344 30.7243V27.377C19.1835 27.7604 21.9271 30.504 22.3105 33.9531ZM14.0781 27.377V30.7243C12.4583 31.0547 11.1797 32.3333 10.8493 33.9531H7.50198C7.88541 30.504 10.629 27.7604 14.0781 27.377Z" fill="black"/>
<path d="M28.9844 17.3906C28.9844 22.8703 33.4422 27.3281 38.9219 27.3281C44.4016 27.3281 48.8594 22.8703 48.8594 17.3906C48.8594 11.9109 44.4016 7.45312 38.9219 7.45312C33.4422 7.45312 28.9844 11.9109 28.9844 17.3906ZM47.2031 17.3906C47.2031 21.9569 43.4882 25.6719 38.9219 25.6719C34.3556 25.6719 30.6406 21.9569 30.6406 17.3906C30.6406 12.8243 34.3556 9.10938 38.9219 9.10938C43.4882 9.10938 47.2031 12.8243 47.2031 17.3906Z" fill="black"/>
<path d="M42.2344 30.2042C47.9393 28.7277 52.1719 23.551 52.1719 17.3906C52.1719 10.364 46.6698 4.61348 39.75 4.18286V0.828125H4.96875V24.809L2.76759 27.0101L3.85409 29.121C3.55431 29.709 3.29925 30.3268 3.09305 30.9669L0.828125 31.6932V37.8702L3.09222 38.5956C3.29842 39.2366 3.55348 39.8552 3.85327 40.4415L2.76677 42.5524L4.96875 44.7535V52.1719H39.75V45.4632C41.6373 45.0782 43.0625 43.4062 43.0625 41.4062V34.7812C43.0625 33.8993 42.5971 33.1275 41.9023 32.6869C42.1077 32.325 42.2344 31.9135 42.2344 31.4688V30.2042ZM39.75 32.2969H38.0938C37.6366 32.2969 37.2656 31.9259 37.2656 31.4688V30.5255C37.8097 30.5943 38.3596 30.6406 38.9219 30.6406C39.4842 30.6406 40.034 30.5943 40.5781 30.5255V31.4688C40.5781 31.9259 40.2071 32.2969 39.75 32.2969ZM50.5156 17.3906C50.5156 23.7837 45.315 28.9844 38.9219 28.9844C32.5288 28.9844 27.3281 23.7837 27.3281 17.3906C27.3281 10.9975 32.5288 5.79688 38.9219 5.79688C45.315 5.79688 50.5156 10.9975 50.5156 17.3906ZM5.51034 40.0299C5.10953 39.3128 4.78822 38.5335 4.55634 37.7136L4.43544 37.2855L2.48438 36.6619V32.9014L4.43544 32.277L4.55634 31.8489C4.78739 31.0307 5.1087 30.2506 5.51117 29.5326L5.72814 29.1442L4.79236 27.3273L7.4523 24.6674L9.2692 25.6031L9.65759 25.3862C10.3756 24.9837 11.1557 24.6624 11.9739 24.4313L12.402 24.3104L13.0256 22.3594H16.7861L17.4105 24.3104L17.8386 24.4313C18.6568 24.6624 19.4369 24.9837 20.1549 25.3862L20.5433 25.6031L22.3602 24.6674L25.0201 27.3273L24.0844 29.1442L24.3013 29.5326C24.7038 30.2506 25.0251 31.0307 25.2562 31.8489L25.3771 32.277L27.3281 32.9006V36.6611L25.3771 37.2855L25.2562 37.7136C25.0243 38.5335 24.703 39.3128 24.3022 40.0299L24.0844 40.4175L25.0201 42.2352L22.3602 44.8943L20.5425 43.9594L20.1549 44.1772C19.4377 44.578 18.6585 44.8993 17.8386 45.1312L17.4105 45.2521L16.7869 47.2031H13.0264L12.402 45.2521L11.9739 45.1312C11.154 44.8993 10.3747 44.578 9.65759 44.1772L9.27003 43.9594L7.4523 44.8943L4.79236 42.2352L5.72814 40.4175L5.51034 40.0299ZM6.625 50.5156V46.409L7.13513 46.9191L9.24602 45.8334C9.83233 46.1332 10.4509 46.3882 11.0919 46.5945L11.8182 48.8594H17.9952L18.7206 46.5953C19.3616 46.3891 19.9802 46.134 20.5665 45.8342L22.6774 46.9199L27.0449 42.5532L25.9584 40.4423C26.2582 39.8552 26.5132 39.2374 26.7195 38.5964L28.9844 37.8693V31.6923L26.7203 30.9669C26.5141 30.3268 26.259 29.7082 25.9592 29.121L27.0457 27.0101L22.6782 22.6426L20.5673 23.7291C19.9793 23.4293 19.3616 23.1743 18.7214 22.968L17.9943 20.7031H11.8173L11.0919 22.9672C10.4518 23.1734 9.83316 23.4285 9.24602 23.7283L7.13513 22.6418L6.625 23.1527V2.48438H38.0938V4.18286C31.1739 4.61348 25.6719 10.364 25.6719 17.3906C25.6719 23.551 29.9044 28.7277 35.6094 30.2042V31.4688C35.6094 31.9135 35.7361 32.325 35.9415 32.6869C35.2467 33.1275 34.7812 33.8993 34.7812 34.7812V41.4062C34.7812 43.4053 36.2065 45.0782 38.0938 45.4632V50.5156H6.625ZM41.4062 41.4062C41.4062 42.776 40.2916 43.8906 38.9219 43.8906C37.5522 43.8906 36.4375 42.776 36.4375 41.4062V34.7812C36.4375 34.3241 36.8085 33.9531 37.2656 33.9531H38.0938H39.75H40.5781C41.0352 33.9531 41.4062 34.3241 41.4062 34.7812V41.4062Z" fill="black"/>
<path d="M34.5386 17.6333L33.3677 18.8043L36.4375 21.8741L44.4761 13.8355L43.3052 12.6646L36.4375 19.5322L34.5386 17.6333Z" fill="black"/>
<path d="M8.28125 12.4219H24.8438V4.14062H8.28125V12.4219ZM9.9375 5.79688H23.1875V10.7656H9.9375V5.79688Z" fill="black"/>
<path d="M8.28125 14.0781H9.9375V15.7344H8.28125V14.0781Z" fill="black"/>
<path d="M11.5938 14.0781H24.0156V15.7344H11.5938V14.0781Z" fill="black"/>
<path d="M8.28125 17.3906H24.0156V19.0469H8.28125V17.3906Z" fill="black"/>
<path d="M27.3281 47.2031H33.9531V48.8594H27.3281V47.2031Z" fill="black"/>
<path d="M27.3281 43.8906H33.9531V45.5469H27.3281V43.8906Z" fill="black"/>
</svg>