<svg version="1.2" xmlns="http://www.w3.org/2000/svg" viewBox="0 0 50 50" width="50" height="50">
	<title>check-icon-svg</title>
	<style>
		.s0 { fill: #01a601 } 
	</style>
	<g id="Layer">
		<path id="Layer" fill-rule="evenodd" class="s0" d="m24.9 0c3.9 0 7.6 0.9 10.8 2.5q-2 1.5-3.7 3c-2.2-0.8-4.6-1.2-7.1-1.2-5.7 0-10.8 2.3-14.6 6-3.7 3.8-6 8.9-6 14.6 0 5.7 2.3 10.9 6 14.7 3.8 3.7 8.9 6 14.6 6 5.8 0 10.9-2.3 14.7-6 3.7-3.8 6-9 6-14.7q0-2-0.4-3.9 1.6-2.1 3.3-4.2c0.9 2.5 1.4 5.3 1.4 8.1 0 6.9-2.8 13.2-7.3 17.7-4.5 4.5-10.8 7.3-17.7 7.3-6.8 0-13.1-2.8-17.6-7.3-4.5-4.5-7.3-10.8-7.3-17.7 0-6.8 2.8-13.1 7.3-17.6 4.5-4.5 10.8-7.3 17.6-7.3zm-11.6 20.8h6.1l0.5 0.1q1.8 1 3.4 2.4 1.2 1 2.3 2.2 3.2-5.3 6.9-9.7 4.1-4.9 8.6-8.9l0.6-0.2h6.6l-1.3 1.4q-6.2 6.9-11.3 14.2-5 7.3-9 15.1l-0.9 1.6-0.7-1.6c-1.4-3.1-3.1-5.9-5.2-8.3-2-2.5-4.3-4.7-7.1-6.6z"/>
	</g>
</svg>