<svg width="60" height="60" viewBox="0 0 60 60" fill="none" xmlns="http://www.w3.org/2000/svg">
<path d="M39.0284 34.301C45.5252 34.301 50.7919 29.0342 50.7919 22.5374C50.7919 16.0406 45.5252 10.7739 39.0284 10.7739C32.5316 10.7739 27.2649 16.0406 27.2649 22.5374C27.2649 29.0342 32.5316 34.301 39.0284 34.301Z" fill="#FCC24C"/>
<path d="M39.0284 10.7739C38.5587 10.7739 38.0965 10.8046 37.6414 10.8581C43.4838 11.5448 48.0178 16.5103 48.0178 22.5374C48.0178 28.5646 43.4841 33.5299 37.6414 34.2168C38.0965 34.2702 38.5587 34.301 39.0284 34.301C45.525 34.301 50.7919 29.0343 50.7919 22.5374C50.7919 16.0406 45.5253 10.7739 39.0284 10.7739V10.7739Z" fill="#DEA42E"/>
<path d="M39.0284 34.301C39.4981 34.301 39.9603 34.2702 40.4154 34.2168C34.5727 33.5301 30.039 28.5646 30.039 22.5374C30.039 16.5103 34.5727 11.545 40.4154 10.8581C39.9603 10.8046 39.4981 10.7739 39.0284 10.7739C32.5315 10.7739 27.2649 16.0406 27.2649 22.5374C27.2651 29.0343 32.5318 34.301 39.0284 34.301Z" fill="#FCE06A"/>
<path d="M39.0284 34.7697C32.2836 34.7697 26.7961 29.2825 26.7961 22.5377C26.7961 15.7929 32.2836 10.3057 39.0284 10.3057C45.7733 10.3057 51.2604 15.7929 51.2604 22.5377C51.2604 29.2825 45.7735 34.7697 39.0284 34.7697ZM39.0284 11.2429C32.8006 11.2429 27.7336 16.3096 27.7336 22.5375C27.7336 28.7653 32.8006 33.832 39.0284 33.832C45.2562 33.832 50.3229 28.7653 50.3229 22.5375C50.3229 16.3096 45.2565 11.2429 39.0284 11.2429Z" fill="#690589"/>
<path d="M31.9937 40.8709H44.2963C45.1389 40.8709 45.947 40.5362 46.5428 39.9404L53.3868 33.0964C54.6852 31.798 56.7901 31.798 58.0886 33.0964C59.387 34.3949 59.387 36.5 58.0886 37.7982L47.5912 48.2957C46.9954 48.8914 46.1873 49.2261 45.3447 49.2261H26.0235C25.558 49.2261 25.1012 49.0984 24.7033 48.857L17.8183 44.6804H10.4097V33.4304H17.8183C19.3077 31.9407 21.328 31.104 23.4346 31.104H37.6909C39.4565 31.104 40.8878 32.5353 40.8878 34.3009C40.8878 36.0664 39.4565 37.4978 37.6909 37.4978H31.9935C31.0621 37.4978 30.3069 38.2529 30.3069 39.1843C30.3072 40.1157 31.0623 40.8709 31.9937 40.8709V40.8709Z" fill="#FF9F70"/>
<path d="M2.18063 48.3046H9.16664C9.85313 48.3046 10.4098 47.748 10.4098 47.0615V30.5268C10.4098 29.8403 9.85313 29.2837 9.16664 29.2837H2.18063C1.49414 29.2837 0.9375 29.8403 0.9375 30.5268V47.0615C0.9375 47.7482 1.49414 48.3046 2.18063 48.3046V48.3046Z" fill="#FF4397"/>
<path d="M9.04454 29.2837H7.40649C8.16048 29.2837 8.77149 29.8949 8.77149 30.6487V46.9394C8.77149 47.6934 8.16024 48.3044 7.40649 48.3044H9.04454C9.79852 48.3044 10.4098 47.6931 10.4098 46.9394V30.6487C10.4098 29.8947 9.79852 29.2837 9.04454 29.2837V29.2837Z" fill="#E12579"/>
<path d="M2.3025 48.3044H3.94055C3.18656 48.3044 2.57531 47.6931 2.57531 46.9394V30.6487C2.57531 29.8947 3.18656 29.2837 3.94055 29.2837H2.3025C1.54852 29.2837 0.9375 29.8949 0.9375 30.6487V46.9394C0.9375 47.6934 1.54875 48.3044 2.3025 48.3044V48.3044Z" fill="#FF61B5"/>
<path d="M9.16664 48.7734H2.18062C1.2368 48.7734 0.46875 48.0056 0.46875 47.0615V30.5266C0.46875 29.583 1.23656 28.8149 2.18062 28.8149H9.16687C10.1107 28.8149 10.8787 29.5828 10.8787 30.5266V47.0615C10.8785 48.0053 10.1107 48.7734 9.16664 48.7734ZM2.18062 29.7524C1.75359 29.7524 1.40625 30.0996 1.40625 30.5266V47.0615C1.40625 47.4883 1.75359 47.8359 2.18062 47.8359H9.16687C9.5939 47.8359 9.94125 47.4885 9.94125 47.0615V30.5266C9.94125 30.0998 9.5939 29.7524 9.16687 29.7524H2.18062Z" fill="#690589"/>
<path d="M3.12158 35.4248C2.86283 35.4248 2.65283 35.2148 2.65283 34.9561V32.1436C2.65283 31.8848 2.86283 31.6748 3.12158 31.6748C3.38033 31.6748 3.59033 31.8848 3.59033 32.1436V34.9561C3.59033 35.2148 3.38033 35.4248 3.12158 35.4248Z" fill="#690589"/>
<path d="M58.0887 33.0964C57.1395 32.1472 55.76 31.895 54.579 32.3338C55.0135 32.4952 55.4218 32.7472 55.771 33.0964C57.0694 34.3949 57.0694 36.5 55.771 37.7982L45.2736 48.2956C44.6778 48.8914 43.8697 49.2261 43.0271 49.2261H45.3451C46.1876 49.2261 46.9958 48.8914 47.5916 48.2956L58.089 37.7982C59.3872 36.4998 59.3872 34.3949 58.0887 33.0964V33.0964Z" fill="#E18152"/>
<path d="M38.5702 34.3009C38.5702 36.0664 37.1388 37.4978 35.3733 37.4978H37.6913C39.4568 37.4978 40.8882 36.0664 40.8882 34.3009C40.8882 32.5353 39.4568 31.104 37.6913 31.104H35.3733C37.1388 31.104 38.5702 32.5353 38.5702 34.3009V34.3009Z" fill="#E18152"/>
<path d="M45.3447 49.6949H26.0235C25.4722 49.6949 24.9318 49.5437 24.4604 49.258L17.6875 45.1492H10.4097C10.1509 45.1492 9.94092 44.9392 9.94092 44.6804V33.4304C9.94092 33.1717 10.1509 32.9617 10.4097 32.9617H17.6272C19.199 31.46 21.2535 30.6353 23.4346 30.6353H37.6909C39.7122 30.6353 41.3568 32.2796 41.3568 34.3009C41.3568 36.3221 39.7124 37.9665 37.6911 37.9665H31.9935C31.322 37.9665 30.7757 38.5128 30.7757 39.1843C30.7757 39.8558 31.322 40.4021 31.9935 40.4021H44.2961C45.0196 40.4021 45.6995 40.1204 46.2111 39.609L53.0551 32.765C53.7716 32.0483 54.7241 31.6538 55.7373 31.6538C56.7505 31.6538 57.7033 32.0485 58.4195 32.765C59.8986 34.2442 59.8986 36.6507 58.4195 38.1299L47.9223 48.6273C47.234 49.3156 46.3183 49.6949 45.3447 49.6949V49.6949ZM10.8784 44.2117H17.8183C17.904 44.2117 17.9882 44.2353 18.0613 44.2796L24.9463 48.4564C25.2712 48.6533 25.6436 48.7574 26.0233 48.7574H45.3444C46.0679 48.7574 46.7481 48.4757 47.2597 47.9642L57.7569 37.4668C58.2965 36.9273 58.5934 36.2101 58.5934 35.4472C58.5934 34.6846 58.2962 33.9674 57.7569 33.4278C57.2176 32.8883 56.5004 32.5913 55.7375 32.5913C54.9747 32.5913 54.2577 32.8885 53.7182 33.4278L46.8742 40.2718C46.1856 40.9604 45.2701 41.3396 44.2963 41.3396H31.9937C30.8052 41.3396 29.8384 40.3728 29.8384 39.1843C29.8384 37.9958 30.8052 37.029 31.9937 37.029H37.6914C39.1956 37.029 40.4195 35.8051 40.4195 34.3009C40.4195 32.7967 39.1956 31.5728 37.6911 31.5728H23.4348C21.4384 31.5728 19.5615 32.3502 18.1499 33.7618C18.062 33.8497 17.9427 33.8992 17.8185 33.8992H10.8787V44.2117H10.8784Z" fill="#690589"/>
<path d="M33.3301 19.8585V19.8283C33.3301 18.3452 34.344 17.1191 35.8423 17.1191C37.3409 17.1191 38.3246 18.3449 38.3246 19.798V19.8283C38.3246 21.2964 37.3257 22.5374 35.8121 22.5374C34.3287 22.5374 33.3301 21.3114 33.3301 19.8585V19.8585ZM36.9774 19.8585V19.8283C36.9774 18.9808 36.4932 18.2845 35.8119 18.2845C35.1005 18.2845 34.6768 18.9808 34.6768 19.798V19.8283C34.6768 20.691 35.161 21.3721 35.8421 21.3721C36.5537 21.3721 36.9774 20.6758 36.9774 19.8585ZM35.0703 26.9263L42.0172 17.437C42.1231 17.2555 42.32 17.1646 42.5319 17.1646C42.8647 17.1646 43.1373 17.422 43.1373 17.755C43.1373 17.9064 43.0766 18.0423 43.0011 18.1485L36.054 27.6379C35.9328 27.8195 35.7364 27.9105 35.5243 27.9105C35.1912 27.9105 34.9339 27.6529 34.9339 27.3201C34.9341 27.1684 34.9946 27.0323 35.0703 26.9263V26.9263ZM39.732 25.2768V25.2466C39.732 23.7632 40.7459 22.5372 42.2443 22.5372C43.7277 22.5372 44.7266 23.763 44.7266 25.2161V25.2466C44.7266 26.7147 43.7124 27.9557 42.2141 27.9557C40.7309 27.9557 39.732 26.7297 39.732 25.2768V25.2768ZM43.3796 25.2768V25.2466C43.3796 24.3991 42.8954 23.7027 42.2141 23.7027C41.5027 23.7027 41.079 24.3991 41.079 25.2161V25.2466C41.079 26.1093 41.5632 26.7902 42.2443 26.7902C42.9556 26.7902 43.3796 26.0941 43.3796 25.2768V25.2768Z" fill="#690589"/>
</svg>