<svg width="61" height="54" viewBox="0 0 61 54" fill="none" xmlns="http://www.w3.org/2000/svg">
<path d="M6.46596 27.2109H5.97065V26.7188C5.97065 26.3672 5.66404 26.0625 5.31025 26.0625C4.95646 26.0625 4.64985 26.3672 4.64985 26.7188V27.2109H4.15454C3.80076 27.2109 3.49414 27.5156 3.49414 27.8672C3.49414 28.2188 3.80076 28.5234 4.15454 28.5234H4.64985V29.0156C4.64985 29.3672 4.95646 29.6719 5.31025 29.6719C5.66404 29.6719 5.97065 29.3672 5.97065 29.0156V28.5234H6.46596C6.81974 28.5234 7.12636 28.2188 7.12636 27.8672C7.12636 27.4922 6.84333 27.2109 6.46596 27.2109Z" fill="#70D6F9"/>
<path d="M51.0903 1.89838C50.1469 1.73432 49.4157 1.00775 49.2271 0.0936924C49.2271 0.0702549 49.2035 0.0468175 49.1799 0.070255C49.1563 0.070255 49.1563 0.0936924 49.1563 0.0936924C48.9676 1.03119 48.2365 1.73432 47.293 1.89838C47.2694 1.89838 47.2458 1.92182 47.2458 1.94526C47.2458 1.96869 47.2694 1.96869 47.293 1.99213C48.2365 2.15619 48.9676 2.88276 49.1563 3.79682C49.1563 3.82026 49.1799 3.84369 49.2035 3.82026C49.2271 3.82026 49.2271 3.79682 49.2271 3.79682C49.4157 2.85932 50.1469 2.15619 51.0903 1.99213C51.1139 1.99213 51.1375 1.96869 51.1375 1.94526C51.1375 1.92182 51.1139 1.89838 51.0903 1.89838Z" fill="#FC657E"/>
<path d="M44.1797 5.67188C44.5705 5.67188 44.8873 5.35708 44.8873 4.96875C44.8873 4.58042 44.5705 4.26562 44.1797 4.26562C43.789 4.26562 43.4722 4.58042 43.4722 4.96875C43.4722 5.35708 43.789 5.67188 44.1797 5.67188Z" fill="#F5C84C"/>
<path d="M51.0196 36.375C51.4104 36.375 51.7272 36.0602 51.7272 35.6719C51.7272 35.2835 51.4104 34.9688 51.0196 34.9688C50.6288 34.9688 50.312 35.2835 50.312 35.6719C50.312 36.0602 50.6288 36.375 51.0196 36.375Z" fill="#87D147"/>
<path d="M8.32916 23.0156C8.71994 23.0156 9.03673 22.7008 9.03673 22.3125C9.03673 21.9242 8.71994 21.6094 8.32916 21.6094C7.93837 21.6094 7.62158 21.9242 7.62158 22.3125C7.62158 22.7008 7.93837 23.0156 8.32916 23.0156Z" fill="#F5C84C"/>
<path d="M1.51289 33.3281H6.93763C7.29142 33.3281 7.55087 33.6094 7.55087 33.9375V52.7344C7.55087 53.0859 7.26783 53.3437 6.93763 53.3437H1.51289C1.1591 53.3437 0.899658 53.0625 0.899658 52.7344V33.9375C0.899658 33.6094 1.18269 33.3281 1.51289 33.3281V33.3281Z" fill="#70D6F9"/>
<path d="M10.4519 34.5469H7.57446V51.8672H10.4519C10.8057 51.8672 11.0652 51.5859 11.0652 51.2578V35.1563C11.0652 34.8047 10.7821 34.5469 10.4519 34.5469V34.5469Z" fill="#DAE6F1"/>
<path d="M49.8875 39.7735C49.2507 38.4844 47.694 37.9453 46.3968 38.5781L36.1133 43.4297C36.7737 42.9844 37.2219 42.3985 37.2219 41.625C37.2219 38.3203 32.8349 38.9063 29.3442 38.9063C27.1743 38.9063 23.778 37.7578 21.4901 36.8672C19.8391 36.2344 18.0702 36 16.3012 36.1875L11.0652 36.7266V48.8438L13.3058 48.6094C15.5229 48.375 17.7636 48.5391 19.9335 49.1016L27.1036 50.9766C31.1603 52.0313 35.5001 51.4688 39.1323 49.3828L48.9676 43.1719C50.0762 42.4219 50.4771 40.9922 49.8875 39.7735V39.7735Z" fill="#F9D0B4"/>
<path d="M6.96112 53.9529H1.53637C0.87597 53.9529 0.333496 53.4138 0.333496 52.7576V33.9607C0.333496 33.3044 0.87597 32.7654 1.53637 32.7654H6.96112C7.62152 32.7654 8.16399 33.3044 8.16399 33.9607V52.7576C8.16399 53.4138 7.62152 53.9529 6.96112 53.9529V53.9529ZM1.51279 33.9138C1.4892 33.9138 1.4892 33.9373 1.4892 33.9373V52.7341C1.4892 52.7576 1.51279 52.7576 1.51279 52.7576H6.93753C6.96112 52.7576 6.96112 52.7341 6.96112 52.7341V33.9373C6.96112 33.9138 6.93753 33.9138 6.93753 33.9138H1.51279Z" fill="black"/>
<path d="M10.452 52.4531H7.57451C7.24431 52.4531 6.98486 52.1953 6.98486 51.8672V34.5469C6.98486 34.2187 7.24431 33.9609 7.57451 33.9609H10.452C11.1124 33.9609 11.6549 34.5 11.6549 35.1563V51.2578C11.6549 51.9141 11.1124 52.4531 10.452 52.4531ZM8.16416 51.2812H10.452C10.4756 51.2812 10.4756 51.2578 10.4756 51.2578V35.1797C10.4756 35.1562 10.452 35.1563 10.452 35.1563H8.16416V51.2812Z" fill="black"/>
<path d="M26.9384 51.539L19.7683 49.664C17.6692 49.125 15.4993 48.9609 13.353 49.1953L11.1123 49.4297C10.7821 49.4531 10.4991 49.2422 10.4519 48.914C10.4519 48.8906 10.4519 48.8672 10.4519 48.8437V36.7266C10.4519 36.4219 10.6878 36.1641 10.9708 36.1406L16.2068 35.6016C18.0465 35.4141 19.9334 35.6484 21.6552 36.3281C25.0044 37.6172 27.7167 38.3203 29.297 38.3203C29.7451 38.3203 30.2404 38.3203 30.7121 38.2969C33.1415 38.25 35.6416 38.1797 36.9388 39.4453C37.5049 40.0312 37.8115 40.8047 37.7643 41.6015C37.7643 41.7187 37.7643 41.8594 37.7407 41.9765L46.1137 38.0391C47.7175 37.2891 49.6516 37.9687 50.4063 39.5625C51.1139 41.0156 50.595 42.7734 49.227 43.6406L39.3917 49.8515C39.3917 49.8515 39.3681 49.8515 39.3681 49.875C35.6416 52.0312 31.1367 52.6406 26.9384 51.539V51.539ZM20.0513 48.539L27.2214 50.414C31.1367 51.4453 35.2878 50.8828 38.8021 48.8672L48.6138 42.6562C49.5572 42.0469 49.8403 40.8047 49.2506 39.8672C48.7081 39 47.576 38.6719 46.6562 39.1172L36.4199 43.9453C34.1321 45.4687 29.7451 45.539 29.1083 45.539C28.7781 45.539 28.5187 45.2812 28.5187 44.9531C28.5187 44.625 28.7781 44.3672 29.1083 44.3672C30.5706 44.3672 34.1085 44.0859 35.7595 42.9844C35.7831 42.9609 35.8067 42.9609 35.8303 42.9375C36.3256 42.5859 36.6322 42.164 36.6322 41.625C36.6558 41.1328 36.4907 40.664 36.1605 40.289C35.217 39.375 32.8584 39.4219 30.7829 39.4687C30.3112 39.4687 29.8159 39.4922 29.3442 39.4922C27.1271 39.4922 23.7307 38.3672 21.2778 37.4062C19.7211 36.7969 18.023 36.5859 16.3719 36.75L11.6784 37.2422V48.1875L13.2586 48.0234C15.5229 47.789 17.8343 47.9531 20.0513 48.539V48.539Z" fill="black"/>
<path d="M49.6752 27.9373C49.628 28.0544 49.5101 28.1248 49.3686 28.0779C49.3214 28.0544 49.2506 28.0076 49.227 27.9607L47.9534 25.4998C47.8827 25.3826 47.7411 25.3357 47.6468 25.406L45.1703 26.6716C45.0524 26.7185 44.9108 26.6716 44.8637 26.5544C44.8401 26.5076 44.8401 26.4373 44.8401 26.3904L47.0807 19.4763C46.8921 19.406 46.727 19.3123 46.609 19.1951C46.2552 18.8435 46.2316 18.2107 45.9486 17.7888C45.6656 17.3669 45.0995 17.1091 44.8873 16.6404C44.6986 16.1716 44.9108 15.5857 44.8165 15.0935C44.7222 14.6013 44.2976 14.156 44.2976 13.6404C44.2976 13.1248 44.7222 12.656 44.8165 12.1873C44.9108 11.6951 44.6986 11.0857 44.8873 10.6404C45.0759 10.1716 45.6656 9.91382 45.9486 9.49194C46.0901 9.25757 46.1845 9.02319 46.2552 8.76538H13.7775C13.1407 8.76538 12.6218 9.28101 12.6218 9.91382V30.3748C12.6218 31.0076 13.1407 31.5232 13.7775 31.5232H49.7931C50.4299 31.5232 50.9488 31.0076 50.9488 30.3748V23.9998L49.6752 27.9373Z" fill="#87D147"/>
<path d="M45.1702 26.6953C45.0523 26.7422 44.9108 26.6953 44.8636 26.5781C44.84 26.5313 44.84 26.4609 44.84 26.4141L47.0807 19.5C46.892 19.4297 46.7269 19.3359 46.609 19.2188C46.2552 18.8672 46.2316 18.2344 45.9486 17.8125C45.6655 17.3906 45.0995 17.1328 44.8872 16.6641C44.6985 16.1953 44.9108 15.6094 44.8165 15.1172C44.7221 14.625 44.2976 14.1797 44.2976 13.6641C44.2976 13.1953 44.6749 12.75 44.7929 12.3047C44.6278 12 44.5098 11.6719 44.4155 11.3438C44.3447 11.1328 44.1796 11.0156 43.9674 11.0156H19.674C19.4617 11.0156 19.273 11.1563 19.2258 11.3438C18.6598 13.2188 17.1739 14.6953 15.287 15.2578C15.0747 15.3281 14.9568 15.4922 14.9568 15.7031V24.5156C14.9568 24.7266 15.0983 24.9141 15.287 24.9609C17.1739 25.5234 18.6598 27 19.2258 28.875C19.2966 29.0859 19.4617 29.2031 19.674 29.2031H43.9674C44.1796 29.2031 44.3683 29.0625 44.4155 28.875C44.7457 27.7969 45.3825 26.8359 46.2316 26.1094L45.1702 26.6953Z" fill="#B2E26D"/>
<path d="M31.7736 26.5547C35.3427 26.5547 38.2361 23.6795 38.2361 20.1328C38.2361 16.5861 35.3427 13.7109 31.7736 13.7109C28.2044 13.7109 25.311 16.5861 25.311 20.1328C25.311 23.6795 28.2044 26.5547 31.7736 26.5547Z" fill="#87D147"/>
<path d="M32.5755 23.5547H30.0518C29.7216 23.5547 29.4622 23.2969 29.4622 22.9688C29.4622 22.6406 29.7216 22.3828 30.0518 22.3828H32.5755C33.0472 22.3828 33.401 22.0078 33.401 21.5625C33.401 21.0938 33.0237 20.7422 32.5755 20.7422H30.9953C29.8867 20.7422 28.9905 19.8516 28.9905 18.75C28.9905 17.6484 29.8867 16.7578 30.9953 16.7578H33.2359C33.5661 16.7578 33.8256 17.0156 33.8256 17.3438C33.8256 17.6719 33.5661 17.9297 33.2359 17.9297H30.9953C30.5236 17.9297 30.1698 18.3047 30.1698 18.75C30.1698 19.2188 30.5471 19.5703 30.9953 19.5703H32.5755C33.6841 19.5703 34.5803 20.4609 34.5803 21.5625C34.5803 22.6641 33.6841 23.5547 32.5755 23.5547Z" fill="black"/>
<path d="M31.7735 24.5156C31.4433 24.5156 31.1838 24.2578 31.1838 23.9297V16.3359C31.1838 16.0078 31.4433 15.75 31.7735 15.75C32.1037 15.75 32.3631 16.0078 32.3631 16.3359V23.9297C32.3631 24.2578 32.1037 24.5156 31.7735 24.5156Z" fill="black"/>
<path d="M49.7932 32.0859H13.7776C12.8106 32.0859 12.0322 31.3125 12.0322 30.3516V9.89062C12.0322 8.92969 12.8106 8.15625 13.7776 8.15625H46.2317C46.5619 8.15625 46.8213 8.41406 46.8213 8.74219C46.8213 8.8125 46.8213 8.85938 46.7978 8.92969L46.7742 9.02344C46.7034 9.30469 46.5855 9.5625 46.444 9.79687C46.2789 10.0312 46.0902 10.2187 45.8543 10.4062C45.6892 10.5234 45.5477 10.6641 45.4298 10.8516C45.3826 11.0391 45.3826 11.25 45.4062 11.4375C45.4298 11.7187 45.4298 12 45.3826 12.2812C45.3118 12.5625 45.2175 12.8203 45.076 13.0547C44.9581 13.2187 44.8873 13.4297 44.8637 13.6172C44.8873 13.8281 44.9581 14.0156 45.076 14.1797C45.2175 14.4141 45.3118 14.6719 45.3826 14.9531C45.4298 15.2344 45.4298 15.5156 45.4062 15.7969C45.3826 15.9844 45.3826 16.1953 45.4298 16.3828C45.5477 16.5469 45.6892 16.7109 45.8543 16.8281C46.326 17.1562 46.6562 17.6484 46.7742 18.2109C46.8213 18.3984 46.9157 18.5859 47.0336 18.75C47.1044 18.8203 47.1987 18.8672 47.3166 18.9141C47.5997 19.0312 47.7648 19.3359 47.6704 19.6406L45.6892 25.7578L47.411 24.8906C47.8119 24.6797 48.3072 24.8437 48.5195 25.2422L49.3922 26.9531L50.4064 23.8125C50.5007 23.5078 50.8309 23.3437 51.1375 23.4375C51.3734 23.5078 51.5385 23.7422 51.5385 24V30.375C51.5385 31.3125 50.7602 32.0859 49.7932 32.0859V32.0859ZM13.7776 9.35156C13.471 9.35156 13.2115 9.60937 13.2115 9.91406V30.375C13.2115 30.6797 13.471 30.9375 13.7776 30.9375H49.7932C50.0998 30.9375 50.3592 30.6797 50.3592 30.375V27.75L50.2413 28.1484C50.0998 28.5703 49.6281 28.8047 49.2035 28.6875C48.9912 28.6172 48.8261 28.4766 48.7318 28.2891L47.6233 26.1562L45.4769 27.2578C45.076 27.4687 44.5807 27.3047 44.3684 26.9062C44.2741 26.7187 44.2505 26.4844 44.3212 26.2734L46.3968 19.8281C46.326 19.7812 46.2789 19.7344 46.2081 19.6641C45.9487 19.3828 45.76 19.0312 45.6656 18.6562C45.6185 18.4922 45.5477 18.3281 45.4534 18.1641C45.3354 18.0234 45.2175 17.9062 45.076 17.7891C44.7694 17.5547 44.5099 17.25 44.3448 16.8984C44.2269 16.5469 44.1797 16.1484 44.2505 15.7734C44.2741 15.5859 44.2741 15.4219 44.2505 15.2344C44.2033 15.0703 44.1326 14.9062 44.0618 14.7656C43.8495 14.4375 43.7316 14.0625 43.708 13.6641C43.7316 13.2656 43.8495 12.8906 44.0618 12.5625C44.1561 12.4219 44.2033 12.2578 44.2505 12.0937C44.2741 11.9062 44.2741 11.7422 44.2505 11.5547C44.2033 11.1797 44.2269 10.7812 44.3448 10.4297C44.5099 10.0781 44.7694 9.77344 45.076 9.53906C45.1467 9.46875 45.2175 9.42187 45.2883 9.35156H13.7776Z" fill="black"/>
<path d="M21.8204 20.7188H20.4524C20.1222 20.7188 19.8628 20.4609 19.8628 20.1328C19.8628 19.8047 20.1222 19.5469 20.4524 19.5469H21.8204C22.1506 19.5469 22.4101 19.8047 22.4101 20.1328C22.4101 20.4609 22.127 20.7188 21.8204 20.7188Z" fill="black"/>
<path d="M43.1183 20.7188H41.7503C41.4201 20.7188 41.1606 20.4609 41.1606 20.1328C41.1606 19.8047 41.4201 19.5469 41.7503 19.5469H43.1183C43.4485 19.5469 43.7079 19.8047 43.7079 20.1328C43.7079 20.4609 43.4485 20.7188 43.1183 20.7188Z" fill="black"/>
<path d="M43.9202 29.8359H19.6268C19.1551 29.8359 18.7541 29.5312 18.6126 29.0859C18.0937 27.3984 16.7729 26.0625 15.0511 25.5469C14.603 25.4062 14.2964 25.0078 14.2964 24.5391V15.7266C14.2964 15.2578 14.603 14.8359 15.0511 14.7187C16.7493 14.2031 18.0937 12.8906 18.6126 11.1797C18.7541 10.7344 19.1551 10.4297 19.6268 10.4297H43.9202C44.3919 10.4297 44.8165 10.7344 44.9344 11.1797C45.0287 11.4844 45.1467 11.7656 45.2882 12.0234C45.3589 12.1641 45.3589 12.3047 45.3353 12.4453C45.2646 12.6563 45.1702 12.8672 45.0759 13.0547C44.958 13.2422 44.8872 13.4297 44.8636 13.6406C44.8872 13.8516 44.958 14.0391 45.0759 14.2031C45.2174 14.4375 45.3118 14.6953 45.3825 14.9766C45.4297 15.2578 45.4297 15.5391 45.4061 15.8203C45.3825 16.0078 45.3825 16.2188 45.4297 16.4063C45.5476 16.5703 45.6891 16.7344 45.8542 16.8516C46.326 17.1797 46.6562 17.6719 46.7741 18.2344C46.8213 18.4219 46.9156 18.6094 47.0335 18.7734C47.1043 18.8438 47.1986 18.8906 47.3166 18.9375C47.5996 19.0547 47.7647 19.3594 47.6703 19.6641L45.6891 25.7812L45.9722 25.6406C46.2552 25.5 46.609 25.6172 46.7741 25.8984C46.892 26.1328 46.8448 26.4375 46.6326 26.6016C45.8542 27.2578 45.2882 28.125 45.0051 29.0859C44.8165 29.5312 44.3919 29.8359 43.9202 29.8359ZM19.7211 28.6641H43.8494C44.0145 28.125 44.274 27.6094 44.5806 27.1406C44.557 27.1406 44.557 27.1172 44.5334 27.1172C44.274 26.9062 44.1796 26.5547 44.274 26.25L46.3495 19.8047C46.2788 19.7578 46.2316 19.7109 46.1608 19.6406C45.9014 19.3594 45.7127 19.0078 45.6184 18.6328C45.5712 18.4688 45.5004 18.3047 45.4061 18.1406C45.2882 18 45.1702 17.8828 45.0287 17.7656C44.7221 17.5312 44.4627 17.2266 44.2976 16.875C44.1796 16.5234 44.1325 16.125 44.2032 15.75C44.2268 15.5625 44.2268 15.3984 44.2032 15.2109C44.1561 15.0469 44.0853 14.8828 44.0145 14.7422C43.8023 14.4141 43.6843 14.0391 43.6608 13.6406C43.6843 13.2422 43.8023 12.8672 43.991 12.5391C44.0381 12.4688 44.0617 12.3984 44.1089 12.3281C43.991 12.0938 43.8966 11.8594 43.8259 11.6016H19.7211C19.0843 13.6172 17.5041 15.1875 15.4993 15.8203V24.4922C17.5041 25.1016 19.0843 26.6719 19.7211 28.6641V28.6641Z" fill="black"/>
<path d="M31.7736 27.1406C27.8819 27.1406 24.7214 24 24.7214 20.1328C24.7214 16.2656 27.8819 13.125 31.7736 13.125C35.6653 13.125 38.8258 16.2656 38.8258 20.1328C38.8258 24 35.6653 27.1406 31.7736 27.1406ZM31.7736 14.2969C28.5423 14.2969 25.9007 16.8984 25.9007 20.1328C25.9007 23.3437 28.5188 25.9687 31.7736 25.9687C35.0049 25.9687 37.6465 23.3672 37.6465 20.1328C37.6465 16.9219 35.0284 14.2969 31.7736 14.2969V14.2969Z" fill="black"/>
<path d="M57.2933 19.5C56.9631 19.5937 56.6565 19.7109 56.3499 19.875C55.9254 20.1562 55.6659 20.7187 55.1942 20.9297C54.7225 21.1172 54.1328 20.9062 53.6375 21C53.2837 21.0703 52.9535 21.3047 52.5762 21.4453L54.6753 27.9609C54.7225 28.0781 54.8404 28.1484 54.9819 28.1016C55.0291 28.0781 55.0999 28.0312 55.1234 27.9844L56.3971 25.5234C56.4678 25.4062 56.6094 25.3594 56.7037 25.4297L59.1802 26.6953C59.2981 26.7422 59.4397 26.6953 59.4868 26.5781C59.5104 26.5312 59.5104 26.4609 59.5104 26.4141L57.2933 19.5Z" fill="#FC657E"/>
<path d="M50.713 20.9766C50.2177 20.8828 49.6045 21.0938 49.1563 20.9063C48.6846 20.7188 48.4252 20.1328 48.0006 19.8516C47.694 19.6875 47.3874 19.5703 47.0572 19.4766L44.8166 26.3906C44.7694 26.5078 44.8401 26.6484 44.9817 26.6953C45.0288 26.7188 45.0996 26.7188 45.1468 26.6719L47.6233 25.4063C47.7412 25.3594 47.8827 25.3828 47.9299 25.5L49.2035 27.9609C49.2743 28.0781 49.4158 28.125 49.5101 28.0547C49.5573 28.0313 49.6045 27.9844 49.6281 27.9141L51.7272 21.3984C51.4206 21.3047 51.0668 21.0469 50.713 20.9766V20.9766Z" fill="#FC657E"/>
<path d="M60.1001 13.6406C60.1001 14.1563 59.6756 14.625 59.5812 15.0937C59.4869 15.5859 59.6992 16.1953 59.5105 16.6406C59.3218 17.1094 58.7321 17.3672 58.4491 17.7891C58.1661 18.2109 58.1425 18.8437 57.7887 19.1953C57.4349 19.5469 56.7981 19.5703 56.3736 19.8516C55.949 20.1328 55.6896 20.6953 55.2179 20.9062C54.7461 21.0938 54.1565 20.8828 53.6612 20.9766C53.1659 21.0703 52.7178 21.4922 52.1989 21.4922C51.68 21.4922 51.2083 21.0703 50.7365 20.9766C50.2412 20.8828 49.628 21.0938 49.1799 20.9062C48.7082 20.7187 48.4487 20.1328 48.0242 19.8516C47.5996 19.5703 46.9628 19.5469 46.609 19.1953C46.2552 18.8437 46.2316 18.2109 45.9486 17.7891C45.6656 17.3672 45.0995 17.1094 44.8873 16.6406C44.6986 16.1719 44.9108 15.5859 44.8165 15.0937C44.7222 14.6016 44.2976 14.1563 44.2976 13.6406C44.2976 13.125 44.7222 12.6563 44.8165 12.1875C44.9108 11.6953 44.6986 11.0859 44.8873 10.6406C45.0759 10.1719 45.6656 9.91406 45.9486 9.49219C46.2316 9.07031 46.2552 8.4375 46.609 8.08594C46.9628 7.73437 47.5996 7.71094 48.0242 7.42969C48.4487 7.14844 48.7082 6.58594 49.1799 6.375C49.6516 6.1875 50.2412 6.39844 50.7365 6.30469C51.2318 6.21094 51.68 5.78906 52.1989 5.78906C52.7178 5.78906 53.1895 6.21094 53.6612 6.30469C54.1565 6.39844 54.7697 6.1875 55.2179 6.375C55.6896 6.5625 55.949 7.14844 56.3736 7.42969C56.7981 7.71094 57.4349 7.73437 57.7887 8.08594C58.1425 8.4375 58.1661 9.07031 58.4491 9.49219C58.7321 9.91406 59.2982 10.1719 59.5105 10.6406C59.6992 11.1094 59.4869 11.6953 59.5812 12.1875C59.6756 12.6797 60.1001 13.125 60.1001 13.6406Z" fill="#FCDD86"/>
<path d="M52.1754 8.67188C49.4159 8.67188 47.1516 10.8984 47.1516 13.6641C47.1516 16.4297 49.3923 18.6562 52.1754 18.6562C54.9585 18.6562 57.1992 16.4297 57.1992 13.6641C57.1992 10.8984 54.9585 8.67188 52.1754 8.67188Z" fill="#F5C84C"/>
<path d="M52.1754 22.1016C51.7744 22.0781 51.397 21.9609 51.0668 21.75C50.9253 21.6563 50.7602 21.6094 50.5951 21.5625C50.4064 21.5391 50.2413 21.5391 50.0526 21.5625C49.2743 21.7266 48.4724 21.3984 48.0243 20.7188C47.8356 20.4141 47.529 20.2266 47.1752 20.1563C46.3968 20.0156 45.7836 19.4063 45.6185 18.6094C45.5713 18.4453 45.5006 18.2813 45.4062 18.1172C45.2883 17.9766 45.1704 17.8594 45.0289 17.7422C44.7223 17.5078 44.4628 17.2031 44.2977 16.8516C44.1798 16.5 44.1326 16.1016 44.2034 15.7266C44.2269 15.5391 44.2269 15.375 44.2034 15.1875C44.1562 15.0234 44.0854 14.8594 44.0147 14.7188C43.8024 14.3906 43.6845 14.0156 43.6609 13.6172C43.6845 13.2188 43.8024 12.8438 44.0147 12.5156C44.109 12.375 44.1562 12.2109 44.2034 12.0469C44.2269 11.8594 44.2269 11.6953 44.2034 11.5078C44.1562 11.1328 44.1798 10.7344 44.2977 10.3828C44.4628 10.0313 44.7223 9.72656 45.0289 9.49219C45.1704 9.375 45.2883 9.25781 45.4062 9.11719C45.5006 8.95313 45.5713 8.78906 45.6185 8.625C45.7129 8.25 45.9015 7.89844 46.161 7.61719C46.444 7.35938 46.7978 7.17188 47.1752 7.07813C47.3403 7.03125 47.5054 6.96094 47.6705 6.86719C47.812 6.75 47.9299 6.63281 48.0478 6.49219C48.4724 5.83594 49.2979 5.48438 50.0762 5.64844C50.2649 5.67188 50.43 5.67188 50.6187 5.64844C50.7838 5.60156 50.9489 5.53125 51.0904 5.46094C51.7508 5.01562 52.6471 5.01562 53.3075 5.46094C53.449 5.55469 53.6141 5.60156 53.7792 5.64844C53.9679 5.67188 54.133 5.67188 54.3217 5.64844C55.1 5.48438 55.9019 5.8125 56.3501 6.49219C56.468 6.63281 56.5859 6.75 56.7274 6.86719C56.8925 6.96094 57.0576 7.03125 57.2227 7.07813C57.6001 7.17188 57.9539 7.35938 58.2369 7.61719C58.4964 7.89844 58.685 8.25 58.7794 8.625C58.8266 8.78906 58.8973 8.95313 58.9917 9.11719C59.1096 9.25781 59.2275 9.375 59.369 9.49219C59.6757 9.72656 59.9351 10.0313 60.1002 10.3828C60.2181 10.7344 60.2653 11.1328 60.1945 11.5078C60.171 11.6953 60.171 11.8594 60.1945 12.0469C60.2417 12.2109 60.3125 12.375 60.3832 12.5156C60.5955 12.8438 60.7134 13.2188 60.737 13.6172C60.7134 14.0156 60.5955 14.3906 60.3832 14.7188C60.2889 14.8594 60.2417 15.0234 60.1945 15.1875C60.171 15.375 60.171 15.5391 60.1945 15.7266C60.2417 16.1016 60.2181 16.5 60.1002 16.8516C59.9351 17.2031 59.6757 17.5078 59.369 17.7422C59.2275 17.8594 59.1096 17.9766 58.9917 18.1172C58.8973 18.2813 58.8266 18.4453 58.7794 18.6094C58.6379 19.3828 58.0246 19.9922 57.2227 20.1563C56.8689 20.2266 56.5623 20.4375 56.3736 20.7188C55.9491 21.375 55.1236 21.7266 54.3453 21.5625C54.1566 21.5391 53.9915 21.5391 53.8028 21.5625C53.6377 21.6094 53.4726 21.6797 53.3311 21.75C52.9537 21.9609 52.5763 22.0781 52.1754 22.1016V22.1016ZM50.4064 20.3672C50.5479 20.3672 50.6895 20.3672 50.831 20.4141C51.114 20.4844 51.3734 20.5781 51.6093 20.7188C51.9395 21 52.4348 21 52.765 20.7188C53.0009 20.5781 53.2603 20.4844 53.5433 20.4141C53.8264 20.3672 54.1094 20.3672 54.3924 20.3906C54.5811 20.4141 54.7934 20.4141 54.9821 20.3672C55.1472 20.25 55.3123 20.1094 55.4302 19.9453C55.7604 19.4766 56.2557 19.1484 56.8218 19.0313C57.0105 18.9844 57.1991 18.8906 57.3642 18.7734C57.4822 18.6094 57.5765 18.4219 57.6237 18.2344C57.7652 17.6719 58.0954 17.2031 58.5435 16.8516C58.7086 16.7344 58.8501 16.5938 58.9681 16.4063C59.0153 16.2188 59.0153 16.0078 58.9917 15.8203C58.9681 15.5391 58.9681 15.2578 59.0152 14.9766C59.086 14.6953 59.1804 14.4375 59.3219 14.2031C59.4398 14.0391 59.5106 13.8281 59.5341 13.6406C59.5106 13.4297 59.4398 13.2422 59.3219 13.0781C59.1804 12.8438 59.086 12.5859 59.0152 12.3047C58.9681 12.0234 58.9681 11.7422 58.9917 11.4609C59.0153 11.2734 59.0153 11.0625 58.9681 10.875C58.8501 10.7109 58.7086 10.5469 58.5435 10.4297C58.3313 10.2656 58.119 10.0547 57.9539 9.82031C57.8124 9.58594 57.6944 9.32813 57.6237 9.04688C57.5765 8.85938 57.4822 8.67188 57.3642 8.50781C57.1991 8.39063 57.0105 8.29688 56.8218 8.25C56.5387 8.17969 56.2793 8.0625 56.0434 7.92188C55.8076 7.75781 55.6189 7.57031 55.4302 7.33594C55.3123 7.17188 55.1708 7.03125 54.9821 6.91406C54.7934 6.86719 54.5811 6.86719 54.3924 6.89063C54.1094 6.91406 53.8264 6.91406 53.5433 6.86719C53.2603 6.79688 53.0009 6.70313 52.765 6.5625C52.4348 6.28125 51.9395 6.28125 51.6093 6.5625C51.3734 6.70313 51.114 6.79688 50.831 6.86719C50.5479 6.91406 50.2649 6.91406 49.9819 6.89063C49.7932 6.86719 49.5809 6.86719 49.3922 6.91406C49.2271 7.03125 49.062 7.17188 48.9441 7.33594C48.779 7.54688 48.5667 7.75781 48.3309 7.92188C48.095 8.0625 47.8356 8.17969 47.5525 8.25C47.3639 8.29688 47.1752 8.39063 47.0101 8.50781C46.8921 8.67188 46.7978 8.85938 46.7506 9.04688C46.6799 9.32813 46.5619 9.58594 46.4204 9.82031C46.2553 10.0547 46.0666 10.2422 45.8308 10.4297C45.6657 10.5469 45.5242 10.6875 45.4062 10.875C45.3591 11.0625 45.3591 11.2734 45.3827 11.4609C45.4062 11.7422 45.4062 12.0234 45.3591 12.3047C45.2883 12.5859 45.194 12.8438 45.0525 13.0781C44.9345 13.2422 44.8638 13.4531 44.8402 13.6406C44.8638 13.8516 44.9345 14.0391 45.0525 14.2031C45.194 14.4375 45.2883 14.6953 45.3591 14.9766C45.4062 15.2578 45.4062 15.5391 45.3827 15.8203C45.3591 16.0078 45.3591 16.2188 45.4062 16.4063C45.5242 16.5703 45.6657 16.7344 45.8308 16.8516C46.3025 17.1797 46.6327 17.6719 46.7506 18.2344C46.7978 18.4219 46.8921 18.6094 47.0101 18.7734C47.1752 18.8906 47.3639 18.9844 47.5525 19.0313C48.1186 19.1719 48.5903 19.5 48.9441 19.9453C49.062 20.1094 49.2036 20.25 49.3922 20.3672C49.5809 20.4141 49.7932 20.4141 49.9819 20.3906C50.1234 20.3906 50.2649 20.3672 50.4064 20.3672V20.3672Z" fill="black"/>
<path d="M51.6564 15.5155C51.4913 15.5155 51.3498 15.4452 51.2319 15.3514L49.6516 13.7811C49.4158 13.5467 49.4394 13.1717 49.6752 12.9608C49.9111 12.7499 50.2649 12.7499 50.5007 12.9608L51.6564 14.1092L53.8735 11.9061C54.1093 11.6717 54.4631 11.6717 54.699 11.8827C54.9349 12.0936 54.9349 12.4686 54.7226 12.703C54.7226 12.703 54.7226 12.703 54.699 12.7264L52.0574 15.3514C51.963 15.4686 51.8215 15.5155 51.6564 15.5155V15.5155Z" fill="black"/>
<path d="M54.9349 28.6874C54.9113 28.6874 54.8877 28.6874 54.8641 28.6874C54.5339 28.6639 54.2509 28.4296 54.1566 28.1249L52.0574 21.6092C51.9631 21.3046 52.1282 20.9764 52.4112 20.8827C52.5291 20.8358 52.6471 20.7889 52.765 20.7186C53.0008 20.578 53.2603 20.4842 53.5433 20.4139C53.8264 20.3671 54.1094 20.3671 54.3924 20.3905C54.5811 20.4139 54.7934 20.4139 54.9821 20.3671C55.1472 20.2499 55.3123 20.1092 55.4302 19.9452C55.5953 19.7342 55.8076 19.5233 56.0434 19.3592C56.2793 19.2186 56.5387 19.1014 56.8218 19.0311C56.9161 19.0077 57.0104 18.9608 57.0812 18.9374C57.3878 18.8202 57.718 18.9608 57.8359 19.2655C57.8359 19.2655 57.8359 19.2889 57.8595 19.2889L60.1002 26.203C60.2417 26.6249 60.0058 27.0936 59.5577 27.2342C59.3454 27.3046 59.1332 27.2811 58.9209 27.1874L56.7746 26.0858L55.666 28.2186C55.5245 28.5233 55.2415 28.6874 54.9349 28.6874V28.6874ZM53.3311 21.7499L55.0056 26.9764L55.8783 25.2655C56.0906 24.8671 56.5859 24.703 56.9869 24.9139L58.7086 25.7811L56.9161 20.2499C56.8453 20.2733 56.751 20.3202 56.6802 20.3671C56.5387 20.4842 56.4208 20.6014 56.3029 20.7421C55.8783 21.3983 55.0528 21.7499 54.2745 21.5858C54.0858 21.5624 53.9207 21.5624 53.732 21.5858C53.6141 21.6092 53.4726 21.6561 53.3311 21.7499V21.7499Z" fill="black"/>
<path d="M49.4395 28.6875C49.1328 28.6875 48.8498 28.5234 48.7083 28.2421L47.5998 26.1093L45.4534 27.2109C45.0525 27.4218 44.5572 27.2578 44.3449 26.8593C44.2506 26.6718 44.227 26.4375 44.2977 26.2265L46.5384 19.3125C46.6327 19.0078 46.9629 18.8437 47.2696 18.9375H47.2931C47.3875 18.9609 47.4818 19.0078 47.5526 19.0312C48.1186 19.1718 48.5904 19.5 48.9441 19.9453C49.0621 20.1093 49.2036 20.25 49.3923 20.3671C49.581 20.414 49.7932 20.414 49.9819 20.3906C50.265 20.3671 50.548 20.3671 50.831 20.414C51.114 20.4843 51.3735 20.5781 51.6093 20.7187C51.7273 20.789 51.8452 20.8359 51.9631 20.8828C52.2698 21 52.4113 21.3046 52.3169 21.6093L50.2178 28.125C50.1234 28.4296 49.8404 28.664 49.5102 28.6875C49.4866 28.6875 49.463 28.6875 49.4395 28.6875V28.6875ZM47.7413 24.8203C48.0479 24.8203 48.3309 24.9843 48.4724 25.2656L49.3451 26.9765L51.0197 21.75C50.8782 21.6796 50.7367 21.6093 50.5716 21.5625C50.3829 21.539 50.2178 21.539 50.0291 21.5625C49.2508 21.7265 48.4488 21.3984 48.0007 20.7187C47.8828 20.5781 47.7649 20.4609 47.6233 20.3437C47.5526 20.2968 47.4818 20.2734 47.3875 20.2265L45.595 25.7578L47.3167 24.8906C47.4818 24.8437 47.6233 24.8203 47.7413 24.8203V24.8203Z" fill="black"/>
<path d="M52.1752 19.2185C49.0855 19.2185 46.5618 16.7341 46.5618 13.6404C46.5618 10.5701 49.0619 8.06226 52.1752 8.06226C55.265 8.06226 57.7886 10.5466 57.7886 13.6404C57.7886 16.7341 55.2885 19.2185 52.1752 19.2185ZM52.1752 9.25757C49.7223 9.25757 47.7411 11.2263 47.7411 13.6638C47.7411 16.1013 49.7223 18.0701 52.1752 18.0701C54.6281 18.0701 56.6093 16.1013 56.6093 13.6638C56.6093 11.2263 54.6281 9.25757 52.1752 9.25757Z" fill="black"/>
</svg>