<svg width="52" height="50" viewBox="0 0 52 50" fill="none" xmlns="http://www.w3.org/2000/svg">
<path d="M41.1271 49.4438C40.8847 49.4438 40.6413 49.3868 40.4183 49.2712L26 41.7968L11.5816 49.2712C11.0682 49.5373 10.4462 49.493 9.97718 49.1568C9.50807 48.8208 9.27305 48.2512 9.37106 47.6876L12.1247 31.8568L0.460166 20.6453C0.0448772 20.2462 -0.104623 19.6493 0.074635 19.1055C0.253791 18.5616 0.730526 18.1653 1.30435 18.0832L17.4247 15.7734L24.6338 1.37001C24.8904 0.85728 25.42 0.532715 25.9999 0.532715C26.5798 0.532715 27.1094 0.85728 27.366 1.37001L34.5751 15.7734L50.6954 18.0832C51.2692 18.1653 51.7461 18.5616 51.9251 19.1055C52.1044 19.6493 51.9549 20.2462 51.5396 20.6453L39.8752 31.8569L42.6288 47.6877C42.7268 48.2513 42.4918 48.8208 42.0227 49.1569C41.7573 49.347 41.443 49.4438 41.1271 49.4438V49.4438Z" fill="#FFE278"/>
<path d="M40.4184 49.2712C40.6413 49.3867 40.8848 49.4438 41.1272 49.4438C41.4431 49.4438 41.7574 49.347 42.0228 49.1568C42.4919 48.8209 42.7269 48.2513 42.6289 47.6876L39.8753 31.8569L51.54 20.6454C51.9553 20.2463 52.1047 19.6494 51.9255 19.1056C51.7465 18.5617 51.2696 18.1654 50.6958 18.0832L34.5755 15.7735L27.3661 1.37001C27.1095 0.85728 26.5799 0.532715 26 0.532715V41.7969L40.4184 49.2712Z" fill="#FFB454"/>
<path d="M26 40.01C33.0114 40.01 38.6953 34.4055 38.6953 27.492C38.6953 20.5786 33.0114 14.9741 26 14.9741C18.9886 14.9741 13.3047 20.5786 13.3047 27.492C13.3047 34.4055 18.9886 40.01 26 40.01Z" fill="#8BB9FF"/>
<path d="M38.6953 27.492C38.6953 20.5785 33.0115 14.9741 26 14.9741V40.01C33.0115 40.01 38.6953 34.4055 38.6953 27.492Z" fill="#7D81E7"/>
<path d="M25.9148 28.4936C21.3101 28.5376 17.6043 32.1894 17.3782 36.679C19.6423 38.7458 22.6713 40.0097 26 40.0097C29.3307 40.0097 32.3612 38.7444 34.6257 36.6754C34.4482 32.1064 30.6015 28.4487 25.9148 28.4936Z" fill="#FFE278"/>
<path d="M26 28.4946V40.0094C29.3306 40.0094 32.3612 38.7441 34.6257 36.6751C34.4492 32.134 30.6479 28.4948 26 28.4946Z" fill="#FFB454"/>
<path d="M26 31.4977C22.9199 31.4977 20.4141 29.0269 20.4141 25.9898C20.4141 22.9528 22.9199 20.4819 26 20.4819C29.0801 20.4819 31.5859 22.9528 31.5859 25.9898C31.5859 29.0269 29.0801 31.4977 26 31.4977Z" fill="#FFDDCE"/>
<path d="M31.5859 25.9898C31.5859 22.9528 29.0801 20.4819 26 20.4819V31.4977C29.0801 31.4977 31.5859 29.0269 31.5859 25.9898Z" fill="#FFBCA7"/>
<path d="M26 41.5118C18.1598 41.5118 11.7812 35.2224 11.7812 27.4918C11.7812 19.7611 18.1598 13.4717 26 13.4717C33.8402 13.4717 40.2188 19.7611 40.2188 27.4918C40.2188 35.2224 33.8402 41.5118 26 41.5118ZM26 16.476C19.8398 16.476 14.8281 21.4177 14.8281 27.4918C14.8281 33.5659 19.8398 38.5075 26 38.5075C32.1602 38.5075 37.1719 33.5659 37.1719 27.4918C37.1719 21.4177 32.1602 16.476 26 16.476Z" fill="#FFB454"/>
<path d="M37.1719 27.4918C37.1719 33.5659 32.1602 38.5075 26 38.5075V41.5118C33.8402 41.5118 40.2188 35.2224 40.2188 27.4918C40.2188 19.7611 33.8402 13.4717 26 13.4717V16.476C32.1602 16.476 37.1719 21.4176 37.1719 27.4918Z" fill="#FF7038"/>
</svg>