<svg width="50" height="50" viewBox="0 0 50 50" fill="none" xmlns="http://www.w3.org/2000/svg">
<g clip-path="url(#clip0)">
<path d="M14.6429 9.92265L11.7234 6.99707C11.0462 6.31846 10.1453 5.94482 9.1866 5.94482C8.22791 5.94482 7.32703 6.31855 6.64988 6.99707L4.53357 9.11797C3.1405 10.5138 3.1405 12.7851 4.53357 14.181L7.45925 17.1127C7.74539 17.3994 8.12068 17.5428 8.49617 17.5428C8.87048 17.5428 9.245 17.4001 9.53093 17.1148C10.1036 16.5434 14.069 12.5649 14.6409 11.9942C15.2135 11.4228 15.2144 10.4954 14.6429 9.92265Z" fill="#105C6E"/>
<path d="M25 0.292969C24.191 0.292969 23.5352 0.948828 23.5352 1.75781V6.44531C23.5352 7.2543 24.191 7.91016 25 7.91016C25.809 7.91016 26.4648 7.2543 26.4648 6.44531V1.75781C26.4648 0.948828 25.809 0.292969 25 0.292969Z" fill="#26879C"/>
<path d="M28.6133 0H21.3867C20.5777 0 19.9219 0.655859 19.9219 1.46484C19.9219 2.27383 20.5777 2.92969 21.3867 2.92969H28.6133C29.4223 2.92969 30.0781 2.27383 30.0781 1.46484C30.0781 0.655859 29.4223 0 28.6133 0Z" fill="#DE513C"/>
<path d="M25 0H21.3867C20.5777 0 19.9219 0.655859 19.9219 1.46484C19.9219 2.27383 20.5777 2.92969 21.3867 2.92969H25V0Z" fill="#FC6249"/>
<path d="M40.8832 11.5834C36.6408 7.33228 31 4.99097 24.9999 4.99097C18.9998 4.99097 13.359 7.33228 9.1166 11.5834C4.875 15.8338 2.53906 21.4849 2.53906 27.4955C2.53906 33.506 4.875 39.1571 9.1166 43.4075C13.359 47.6586 18.9998 50 24.9999 50C31 50 36.6408 47.6586 40.8832 43.4075C45.1248 39.1571 47.4607 33.506 47.4607 27.4955C47.4607 21.4849 45.1248 15.8338 40.8832 11.5834Z" fill="#DE513C"/>
<path d="M24.9999 4.99097C18.9998 4.99097 13.359 7.33228 9.1166 11.5834C4.875 15.8338 2.53906 21.4849 2.53906 27.4955C2.53906 33.506 4.875 39.1571 9.1166 43.4075C13.359 47.6586 18.9998 50 24.9999 50V4.99097Z" fill="#FC6249"/>
<path d="M24.9999 10.5994C15.7013 10.5994 8.13623 18.1789 8.13623 27.4954C8.13623 36.8119 15.7013 44.3915 24.9999 44.3915C34.2985 44.3915 41.8636 36.8119 41.8636 27.4954C41.8636 18.1789 34.2985 10.5994 24.9999 10.5994Z" fill="#96D1D9"/>
<path d="M24.9999 10.5994C15.7013 10.5994 8.13623 18.1789 8.13623 27.4954C8.13623 36.8119 15.7013 44.3915 24.9999 44.3915V10.5994Z" fill="#F4F2E6"/>
<path d="M25 14.2586C25.809 14.2586 26.4648 13.6027 26.4648 12.7938V10.6641C25.9819 10.6223 25.4936 10.5996 25 10.5996C24.5064 10.5996 24.0181 10.6223 23.5352 10.6641V12.7938C23.5352 13.6027 24.191 14.2586 25 14.2586Z" fill="#105C6E"/>
<path d="M25 40.7327C24.191 40.7327 23.5352 41.3885 23.5352 42.1975V44.3272C24.0181 44.369 24.5064 44.3917 25 44.3917C25.4936 44.3917 25.9819 44.369 26.4648 44.3272V42.1975C26.4648 41.3885 25.809 40.7327 25 40.7327Z" fill="#105C6E"/>
<path d="M41.7994 26.0308H39.7017C38.8927 26.0308 38.2368 26.6866 38.2368 27.4956C38.2368 28.3046 38.8927 28.9604 39.7017 28.9604H41.7994C41.841 28.4775 41.8635 27.9892 41.8635 27.4956C41.8635 27.0021 41.841 26.5137 41.7994 26.0308Z" fill="#105C6E"/>
<path d="M11.7629 27.4956C11.7629 26.6866 11.107 26.0308 10.298 26.0308H8.20029C8.15869 26.5137 8.13623 27.0021 8.13623 27.4956C8.13623 27.9892 8.15869 28.4775 8.20029 28.9604H10.298C11.107 28.9604 11.7629 28.3046 11.7629 27.4956Z" fill="#105C6E"/>
<path d="M28.6132 26.6503H26.5466V20.7258C26.5466 19.9168 25.8908 19.261 25.0818 19.261C24.2728 19.261 23.6169 19.9168 23.6169 20.7258V28.1152C23.6169 28.9242 24.2728 29.58 25.0818 29.58H28.6132C29.4222 29.58 30.0781 28.9242 30.0781 28.1152C30.0781 27.3062 29.4222 26.6503 28.6132 26.6503Z" fill="#105C6E"/>
</g>
<defs>
<clipPath id="clip0">
<rect width="50" height="50" fill="white"/>
</clipPath>
</defs>
</svg>